<svg width="25" height="24" viewBox="0 0 25 24" fill="none" xmlns="http://www.w3.org/2000/svg">
<path d="M11.9704 21.75C6.16796 21.75 1.44385 17.15 1.44385 11.5C1.44385 5.85 6.16796 1.25 11.9704 1.25C17.7728 1.25 22.4969 5.85 22.4969 11.5C22.4969 17.15 17.7728 21.75 11.9704 21.75ZM11.9704 2.75C7.01008 2.75 2.98432 6.68 2.98432 11.5C2.98432 16.32 7.01008 20.25 11.9704 20.25C16.9307 20.25 20.9565 16.32 20.9565 11.5C20.9565 6.68 16.9307 2.75 11.9704 2.75Z" fill="#B9B9B9"/>
<path d="M22.7538 22.75C22.5586 22.75 22.3635 22.68 22.2095 22.53L20.1555 20.53C19.8577 20.24 19.8577 19.76 20.1555 19.47C20.4533 19.18 20.9463 19.18 21.2441 19.47L23.2981 21.47C23.5959 21.76 23.5959 22.24 23.2981 22.53C23.144 22.68 22.9489 22.75 22.7538 22.75Z" fill="#B9B9B9"/>
</svg>
